<svg id="название" xmlns="http://www.w3.org/2000/svg" width="281" height="72" viewBox="0 0 281 72">
  <metadata><?xpacket begin="﻿" id="W5M0MpCehiHzreSzNTczkc9d"?>
<x:xmpmeta xmlns:x="adobe:ns:meta/" x:xmptk="Adobe XMP Core 5.6-c142 79.160924, 2017/07/13-01:06:39        ">
   <rdf:RDF xmlns:rdf="http://www.w3.org/1999/02/22-rdf-syntax-ns#">
      <rdf:Description rdf:about=""/>
   </rdf:RDF>
</x:xmpmeta>
                                                                                                    
                                                                                                    
                                                                                                    
                                                                                                    
                                                                                                    
                                                                                                    
                                                                                                    
                                                                                                    
                                                                                                    
                                                                                                    
                                                                                                    
                                                                                                    
                                                                                                    
                                                                                                    
                                                                                                    
                                                                                                    
                                                                                                    
                                                                                                    
                                                                                                    
                                                                                                    
                           
<?xpacket end="w"?></metadata>
<defs>
    <style>
      .cls-1 {
        fill-rule: evenodd;
      }
    </style>
  </defs>
  <path id="c" class="cls-1" d="M91.58,35.114c0,4.226,2.75,6.863,6.8,6.863a6.722,6.722,0,0,0,4.812-1.734,5.961,5.961,0,0,0,1.846-4.479,1.13,1.13,0,0,0-1.194-1.228,1.147,1.147,0,0,0-1.194,1.047,3.978,3.978,0,0,1-4.2,4.082c-2.605,0-4.306-1.806-4.306-4.7V29.841c0-2.853,1.7-4.659,4.306-4.659a4.027,4.027,0,0,1,4.2,3.9,1.1,1.1,0,0,0,1.194,1.047,1.189,1.189,0,0,0,1.194-1.3,5.571,5.571,0,0,0-1.846-4.3,7.418,7.418,0,0,0-9.7.217A6.8,6.8,0,0,0,91.58,29.8v5.31Z"/>
  <path id="o" class="cls-1" d="M109.7,34.878c0,4.334,2.822,7.043,7.019,7.043a7.026,7.026,0,0,0,5.1-1.914,6.934,6.934,0,0,0,1.99-5.237V29.858c0-4.37-2.822-7.08-7.019-7.08A6.711,6.711,0,0,0,109.7,29.93v4.948Zm2.569-4.912c0-3,1.772-4.84,4.486-4.84s4.487,1.842,4.487,4.84v4.768c0,3-1.773,4.876-4.487,4.876s-4.486-1.878-4.486-4.876V29.966Z"/>
  <path id="f" class="cls-1" d="M128.324,26.232V40.716a1.3,1.3,0,0,0,2.6,0V30.089h5.531a1.048,1.048,0,0,0,0-2.095h-5.531V24.4c0-2.131.3-4.785,3.224-5.841a8.229,8.229,0,0,1,2.208-.275,1.363,1.363,0,0,0,1.1-1.377c0-.542-0.068-0.646-0.828-0.826a5.183,5.183,0,0,0-3.036,0,8.212,8.212,0,0,0-5.277,8.1V24.137"/>
  <path id="f_копия" data-name="f копия" class="cls-1" d="M141.293,26.232V40.716a1.3,1.3,0,0,0,2.6,0V30.089h5.532a1.048,1.048,0,0,0,0-2.095H143.9V24.4c0-2.131.3-4.785,3.225-5.841a8.22,8.22,0,0,1,2.207-.275,1.363,1.363,0,0,0,1.1-1.377c0-.542-0.068-0.646-0.828-0.826a5.179,5.179,0,0,0-3.035,0,8.211,8.211,0,0,0-5.278,8.1V24.137"/>
  <path id="e" class="cls-1" d="M154.077,34.557c0,4.334,2.822,7.043,7.019,7.043,3.292,0,5.4-1.718,6.446-4.861a3.865,3.865,0,0,0,0-1.653,1.051,1.051,0,0,0-1.1-1.1,1.43,1.43,0,0,0-1.1,1.1c-0.29.9-.115,1.782-0.8,2.757a4.08,4.08,0,0,1-3.4,1.445c-2.714,0-4.487-1.878-4.487-4.876V30.3h10.2c1.128,0,1.245-2.379,1.245-2.379-1.324-4.536-4.109-5.479-6.926-5.468a6.71,6.71,0,0,0-7.091,7.152v4.948Zm2.568-6.746c0.718-3.273,3.319-3.187,4.487-3.187,0.947,0,3.879.244,4.486,3.187V28.5h-8.973V27.811Z"/>
  <path id="e_копия" data-name="e копия" class="cls-1" d="M173.117,34.557c0,4.334,2.822,7.043,7.019,7.043,3.292,0,5.4-1.718,6.446-4.861a3.865,3.865,0,0,0,0-1.653,1.051,1.051,0,0,0-1.1-1.1,1.43,1.43,0,0,0-1.1,1.1c-0.29.9-.115,1.782-0.8,2.757a4.08,4.08,0,0,1-3.4,1.445c-2.714,0-4.487-1.878-4.487-4.876V30.3h10.2c1.128,0,1.245-2.379,1.245-2.379-1.324-4.536-4.109-5.479-6.926-5.468a6.71,6.71,0,0,0-7.091,7.152v4.948Zm2.568-6.746c0.718-3.273,3.319-3.187,4.487-3.187,0.947,0,3.879.244,4.486,3.187V28.5h-8.973V27.811Z"/>
  <path id="l" class="cls-1" d="M191.843,19.109V17.457a1.164,1.164,0,0,1,1.086-1.488,1.29,1.29,0,0,1,1.363,1.488V36.464s-0.314,2.369.845,2.755,3.918-.484,3.863,1.1-1.049,1.586-1.932,1.586-3.328-.154-4.415-1.861-0.81-3.8-.81-4.959V19.109Z"/>
  <path id="a" class="cls-1" d="M209.025,22.806a11.219,11.219,0,0,0-4.848,1.047,1.408,1.408,0,0,0-1.013,1.228,1.006,1.006,0,0,0,1.049,1.047,2.509,2.509,0,0,0,.9-0.289,8.459,8.459,0,0,1,3.582-.686c5.1,0,4.65,4.975,4.65,4.975a5.677,5.677,0,0,0-4.691-1.928,6.265,6.265,0,0,0-4.415,1.928,8.368,8.368,0,0,0-2.208,5.234,6.483,6.483,0,0,0,6.411,6.587,6.3,6.3,0,0,0,5.319-2.348v1.011a1.122,1.122,0,1,0,2.243,0V30.1C216.008,25.479,213.331,22.806,209.025,22.806Zm0.036,17.085c-3.469,0-4.873-1.975-4.818-5.079a4.971,4.971,0,0,1,4.691-4.683c2.713,0,4.58,1.745,4.415,5.785A3.985,3.985,0,0,1,209.061,39.89Z"/>
  <path id="v" class="cls-1" d="M219.213,24a2.793,2.793,0,0,0,.219.838l5.44,15.382a1.782,1.782,0,0,0,1.68,1.422A1.745,1.745,0,0,0,228.2,40.22l5.513-15.565a1.471,1.471,0,0,0,.146-0.693,1.2,1.2,0,0,0-1.241-1.276,1.334,1.334,0,0,0-1.278,1.057l-4.71,14.07-4.711-14a1.4,1.4,0,0,0-1.351-1.13A1.294,1.294,0,0,0,219.213,24Z"/>
  <path id="k" class="cls-1" d="M238.123,40.744c-0.145,1.7,2.749,1.7,2.568,0l0.252-6.483,3.587-3.306,5.519,10.192a1.371,1.371,0,0,0,1.1.826,1.087,1.087,0,0,0,1.157-1.23,1.794,1.794,0,0,0-.4-1.011l-5.45-10.43,4.98-4.663a1.363,1.363,0,0,0,.434-1.011,1.173,1.173,0,0,0-1.158-1.192,1.549,1.549,0,0,0-1.194.722l-8.833,8.484V17.663c0.181-1.625-2.713-1.625-2.568,0v23.08Z"/>
  <path id="a_копия" data-name="a копия" class="cls-1" d="M262.834,22.806a11.219,11.219,0,0,0-4.848,1.047,1.408,1.408,0,0,0-1.013,1.228,1.006,1.006,0,0,0,1.049,1.047,2.509,2.509,0,0,0,.9-0.289,8.453,8.453,0,0,1,3.582-.686c5.1,0,4.65,4.975,4.65,4.975a5.679,5.679,0,0,0-4.691-1.928,6.265,6.265,0,0,0-4.415,1.928,8.368,8.368,0,0,0-2.208,5.234,6.483,6.483,0,0,0,6.411,6.587,6.3,6.3,0,0,0,5.319-2.348v1.011a1.122,1.122,0,1,0,2.243,0V30.1C269.817,25.479,267.139,22.806,262.834,22.806ZM262.87,39.89c-3.469,0-4.874-1.975-4.818-5.079a4.97,4.97,0,0,1,4.691-4.683c2.713,0,4.58,1.745,4.415,5.785A3.985,3.985,0,0,1,262.87,39.89Z"/>
  <path id="интернет-магазин" class="cls-1" d="M122.855,56.349c0.239-.385.463-0.755,0.669-1.109s0.381-.672.524-0.953h0.031q-0.039.88-.038,1.888V60.95h1.185V52.243h-1.04l-2.877,4.6q-0.36.578-.665,1.109t-0.521.953h-0.03q0.037-.6.038-1.888V52.243h-1.186V60.95h1.041Zm10.7,4.6V52.243h-1.186v3.593h-3.664V52.243h-1.186V60.95h1.186v-3.9h3.664v3.9h1.186Zm4,0h1.186V53.508h2.471V52.243h-6.128v1.265h2.471V60.95Zm8.748-7.529a1.633,1.633,0,0,1,.535.518,2.541,2.541,0,0,1,.329.774,3.9,3.9,0,0,1,.112.958h-3.718a3.562,3.562,0,0,1,.2-0.949,2.768,2.768,0,0,1,.426-0.774,2.033,2.033,0,0,1,.616-0.522,1.566,1.566,0,0,1,.763-0.192A1.419,1.419,0,0,1,146.308,53.421Zm-1.166,6.356a2.171,2.171,0,0,1-.853-0.527,2.515,2.515,0,0,1-.574-0.944,4.194,4.194,0,0,1-.21-1.416h5.019c0-.183.007-0.3,0.007-0.353V56.349a7.6,7.6,0,0,0-.225-1.98,4.013,4.013,0,0,0-.614-1.347,2.384,2.384,0,0,0-.92-0.765,2.711,2.711,0,0,0-1.141-.243,2.783,2.783,0,0,0-1.244.293,3.041,3.041,0,0,0-1.053.88,4.568,4.568,0,0,0-.733,1.462,6.937,6.937,0,0,0-.275,2.067,6.621,6.621,0,0,0,.284,2.067,3.671,3.671,0,0,0,.784,1.389,2.928,2.928,0,0,0,1.186.77,4.422,4.422,0,0,0,1.465.238,5.465,5.465,0,0,0,1.232-.133,3.451,3.451,0,0,0,.964-0.362V59.5a5.655,5.655,0,0,1-.968.325,4.686,4.686,0,0,1-1.075.115A3.283,3.283,0,0,1,145.142,59.777Zm10.4-1.558a3.11,3.11,0,0,1-.527,1.059,1.762,1.762,0,0,1-.7.541,1.924,1.924,0,0,1-.716.151,2.108,2.108,0,0,1-1.035-.266,2.985,2.985,0,0,1-.858-0.724V54.424a4.072,4.072,0,0,1,.285-0.376,2.5,2.5,0,0,1,.423-0.394,2.37,2.37,0,0,1,.55-0.3,1.837,1.837,0,0,1,.674-0.119,1.771,1.771,0,0,1,.908.229,1.94,1.94,0,0,1,.661.655,3.2,3.2,0,0,1,.4,1.031,6.294,6.294,0,0,1,.135,1.366A5.841,5.841,0,0,1,155.538,58.219Zm1.184-3.781a4.178,4.178,0,0,0-.7-1.389,2.648,2.648,0,0,0-1.007-.788,2.938,2.938,0,0,0-1.182-.248,2.182,2.182,0,0,0-.807.147,2.749,2.749,0,0,0-.635.344,2.951,2.951,0,0,0-.421.371,1.878,1.878,0,0,0-.256.357h-0.023l-0.252-.99h-0.895V65.212h1.163V60.144h0.022a2.737,2.737,0,0,0,.884.774,2.443,2.443,0,0,0,1.161.261,2.745,2.745,0,0,0,1.406-.408,3.322,3.322,0,0,0,.684-0.568,3.373,3.373,0,0,0,.576-0.875,5.653,5.653,0,0,0,.4-1.224,7.739,7.739,0,0,0,.15-1.609A6.984,6.984,0,0,0,156.722,54.438ZM164.9,60.95V52.243h-1.186v3.593h-3.665V52.243H158.86V60.95h1.186v-3.9h3.665v3.9H164.9Zm5.856-7.529a1.621,1.621,0,0,1,.534.518,2.518,2.518,0,0,1,.33.774,3.946,3.946,0,0,1,.112.958h-3.718a3.523,3.523,0,0,1,.2-0.949,2.768,2.768,0,0,1,.426-0.774,2.033,2.033,0,0,1,.616-0.522,1.566,1.566,0,0,1,.763-0.192A1.419,1.419,0,0,1,170.753,53.421Zm-1.166,6.356a2.171,2.171,0,0,1-.853-0.527,2.5,2.5,0,0,1-.574-0.944,4.167,4.167,0,0,1-.211-1.416h5.019c0.005-.183.008-0.3,0.008-0.353V56.349a7.6,7.6,0,0,0-.225-1.98,4.013,4.013,0,0,0-.614-1.347,2.384,2.384,0,0,0-.92-0.765,2.711,2.711,0,0,0-1.141-.243,2.78,2.78,0,0,0-1.244.293,3.041,3.041,0,0,0-1.053.88,4.568,4.568,0,0,0-.733,1.462,6.937,6.937,0,0,0-.275,2.067,6.621,6.621,0,0,0,.284,2.067,3.671,3.671,0,0,0,.784,1.389,2.931,2.931,0,0,0,1.185.77,4.433,4.433,0,0,0,1.466.238,5.45,5.45,0,0,0,1.231-.133,3.427,3.427,0,0,0,.964-0.362V59.5a5.645,5.645,0,0,1-.967.325,4.686,4.686,0,0,1-1.075.115A3.283,3.283,0,0,1,169.587,59.777Zm6.648,1.173h1.186V53.508h2.472V52.243h-6.129v1.265h2.471V60.95Zm4.308-3.9h3.374V55.717h-3.374v1.329Zm9.622,3.9,1.385-4.17q0.587-1.76.906-2.8h0.068q-0.053,1.274-.053,2.777v4.2h1.186V52.243h-1.681L190.664,56.2q-0.445,1.366-.821,2.621h-0.054q-0.352-1.219-.821-2.621l-1.3-3.959h-1.68V60.95h1.186v-4.2q0-1.686-.054-2.777h0.069q0.463,1.494.905,2.8l1.385,4.17h0.691Zm10.148,0h1V55.139a5.593,5.593,0,0,0-.05-0.774,2.835,2.835,0,0,0-.165-0.646,2.621,2.621,0,0,0-1.006-1.237,3.182,3.182,0,0,0-1.8-.467,5.149,5.149,0,0,0-.612.037,4.722,4.722,0,0,0-.581.105,4.385,4.385,0,0,0-.524.165,2.8,2.8,0,0,0-.432.206v1.191a5.719,5.719,0,0,1,.967-0.344,4.192,4.192,0,0,1,1.037-.124,2.106,2.106,0,0,1,1.178.289,1.707,1.707,0,0,1,.635.729,1.808,1.808,0,0,1,.13.486,4.549,4.549,0,0,1,.039.632v0.6h-0.031a4.742,4.742,0,0,0-.857-0.275,5.081,5.081,0,0,0-1.048-.119,2.975,2.975,0,0,0-1.09.193,2.392,2.392,0,0,0-.846.55,2.485,2.485,0,0,0-.547.871,3.261,3.261,0,0,0-.195,1.164,3.7,3.7,0,0,0,.176,1.182,2.554,2.554,0,0,0,.494.885,2.079,2.079,0,0,0,.757.55,2.44,2.44,0,0,0,.968.188,2.6,2.6,0,0,0,.734-0.1,2.813,2.813,0,0,0,.635-0.27,2.678,2.678,0,0,0,.88-0.82h0.031Zm-0.191-2.081c-0.056.067-.144,0.162-0.263,0.284a3.252,3.252,0,0,1-.434.367,2.8,2.8,0,0,1-.583.316,1.863,1.863,0,0,1-.708.133,1.531,1.531,0,0,1-.545-0.1,1.161,1.161,0,0,1-.441-0.293,1.375,1.375,0,0,1-.294-0.5,2.124,2.124,0,0,1-.106-0.706,1.516,1.516,0,0,1,.426-1.182,1.7,1.7,0,0,1,1.181-.385,4.923,4.923,0,0,1,.99.11,8.043,8.043,0,0,1,.777.211V58.87Zm8.477-6.627h-5V60.95h1.239V53.535H208.6V52.243Zm5.861,8.707h0.994V55.139a5.6,5.6,0,0,0-.049-0.774,2.888,2.888,0,0,0-.165-0.646,2.621,2.621,0,0,0-1.006-1.237,3.185,3.185,0,0,0-1.8-.467,5.149,5.149,0,0,0-.612.037,4.688,4.688,0,0,0-.581.105,4.4,4.4,0,0,0-.525.165,2.891,2.891,0,0,0-.432.206v1.191a5.76,5.76,0,0,1,.968-0.344,4.192,4.192,0,0,1,1.037-.124,2.111,2.111,0,0,1,1.178.289,1.713,1.713,0,0,1,.635.729,1.846,1.846,0,0,1,.13.486,4.561,4.561,0,0,1,.038.632v0.6h-0.03a4.768,4.768,0,0,0-.857-0.275,5.089,5.089,0,0,0-1.048-.119,2.981,2.981,0,0,0-1.091.193,2.388,2.388,0,0,0-.845.55,2.471,2.471,0,0,0-.547.871,3.261,3.261,0,0,0-.195,1.164,3.675,3.675,0,0,0,.176,1.182,2.569,2.569,0,0,0,.493.885,2.082,2.082,0,0,0,.758.55,2.44,2.44,0,0,0,.968.188,2.6,2.6,0,0,0,.734-0.1,2.833,2.833,0,0,0,.635-0.27,2.678,2.678,0,0,0,.88-0.82h0.031Zm-0.192-2.081c-0.056.067-.143,0.162-0.262,0.284a3.265,3.265,0,0,1-.435.367,2.792,2.792,0,0,1-.582.316,1.871,1.871,0,0,1-.709.133,1.526,1.526,0,0,1-.544-0.1,1.165,1.165,0,0,1-.442-0.293,1.388,1.388,0,0,1-.293-0.5,2.123,2.123,0,0,1-.107-0.706,1.513,1.513,0,0,1,.427-1.182,1.7,1.7,0,0,1,1.18-.385,4.906,4.906,0,0,1,.99.11,7.887,7.887,0,0,1,.777.211V58.87Zm3.122-5.188a9.541,9.541,0,0,1,1.079-.335,4.905,4.905,0,0,1,1.056-.124,2.344,2.344,0,0,1,.742.105,1.406,1.406,0,0,1,.516.293,1.186,1.186,0,0,1,.3.44,1.485,1.485,0,0,1,.1.555,1.663,1.663,0,0,1-.069.49,0.9,0.9,0,0,1-.23.385,1.1,1.1,0,0,1-.417.252,1.968,1.968,0,0,1-.654.092h-1.622v1.219h1.584A1.822,1.822,0,0,1,221,57.4a1.285,1.285,0,0,1,.4,1.026,1.992,1.992,0,0,1-.092.614,1.082,1.082,0,0,1-.329.49,1.651,1.651,0,0,1-.635.321,3.72,3.72,0,0,1-1.01.115,5.168,5.168,0,0,1-1.109-.128,5.777,5.777,0,0,1-.972-0.321v1.164a4.1,4.1,0,0,0,1.075.38,5.91,5.91,0,0,0,1.182.115,4.182,4.182,0,0,0,1.454-.22,2.633,2.633,0,0,0,.96-0.591,2.254,2.254,0,0,0,.543-0.866,3.152,3.152,0,0,0,.173-1.045,2.75,2.75,0,0,0-.115-0.834,1.983,1.983,0,0,0-.31-0.609,1.518,1.518,0,0,0-.455-0.4,1.639,1.639,0,0,0-.551-0.193V56.386a1.9,1.9,0,0,0,.451-0.238,1.6,1.6,0,0,0,.39-0.394,2.021,2.021,0,0,0,.272-0.564,2.5,2.5,0,0,0,.1-0.756,2.74,2.74,0,0,0-.172-0.99,2.024,2.024,0,0,0-.512-0.765,2.364,2.364,0,0,0-.842-0.49,3.69,3.69,0,0,0-1.2-.174,5.849,5.849,0,0,0-1.232.147,5.445,5.445,0,0,0-1.071.357v1.164Zm10.994,2.667q0.36-.577.67-1.109t0.524-.953h0.031q-0.039.88-.039,1.888V60.95h1.186V52.243h-1.04l-2.877,4.6q-0.36.578-.666,1.109t-0.52.953h-0.031q0.039-.6.039-1.888V52.243h-1.186V60.95h1.04Zm10.7,4.6V52.243H237.9v3.593h-3.665V52.243h-1.186V60.95h1.186v-3.9H237.9v3.9h1.186Z"/>
  <path id="Эллипс_1" data-name="Эллипс 1" class="cls-1" d="M40.537,68.127a33.128,33.128,0,1,1,9.248.424c-1.022.095-4.761-1.509-4.761-3.162S45.3,58.5,45.3,58.5s0.046-.826-1.38-0.826A38.136,38.136,0,0,1,38.4,57.4a2.354,2.354,0,0,1-1.38-.826,2.753,2.753,0,0,1,2.759-1.653h5.243s0.184,0.459.276-1.653,0-5.785,0-5.785-0.092-.918-1.656-1.928A8.32,8.32,0,0,0,38.953,43.9c-1.748,0-2.024-3.306-.276-3.03A15.24,15.24,0,0,1,43.92,42.8c1.012,0.735,2.667,1.837,2.759,2.479a5.793,5.793,0,0,1,2.208-2.2c1.656-1.01,3.955-2.2,5.243-1.928s1.748,0.826,1.1,1.653-0.92.735-2.483,1.1a6.39,6.39,0,0,0-3.035,1.653,3.012,3.012,0,0,0-1.38,2.479c-0.092,1.194-.276,5.326-0.276,6.06s-0.092,1.1,2.484,1.1,5.059,0.184,5.795,1.377a2.392,2.392,0,0,1-2.208,1.1c-1.656,0-3.771-.092-4.691.275s-1.38.184-1.38,1.377a39.549,39.549,0,0,0,0,4.683c0.184,0.735-.092,1.194,1.656,1.653s4.323-.184,5.795-0.551a34.3,34.3,0,0,0,6.623-3.306,34.818,34.818,0,0,0,5.243-3.857,34.061,34.061,0,0,0,4.691-5.509,32.563,32.563,0,0,0,3.587-7.162c0.828-2.479.92-5.785,1.1-7.989a25.679,25.679,0,0,0-.276-7.438,39.673,39.673,0,0,0-2.208-6.611,22.874,22.874,0,0,0-3.587-6.06,34.857,34.857,0,0,0-3.863-4.132,58.032,58.032,0,0,0-4.967-3.581,30.932,30.932,0,0,0-6.071-2.479A32.808,32.808,0,0,0,46.4,5.336a32.674,32.674,0,0,0-8.554,1.377,24.684,24.684,0,0,0-6.623,3.03A48.011,48.011,0,0,0,25.156,14.7c-1.656,1.745-3.955,4.316-4.691,6.06s-2.575,5.326-3.035,7.713a32.08,32.08,0,0,0-.828,8.54,47.047,47.047,0,0,0,1.932,8.815,26.163,26.163,0,0,0,3.587,7.162,33.615,33.615,0,0,0,5.519,5.785,35.719,35.719,0,0,0,5.519,3.581,26.684,26.684,0,0,0,5.519,1.928c0.92,0.275,2.116,1.928,2.483,2.755C41.161,67.042,42.528,68.5,40.537,68.127Z"/>
  <path id="O-2" data-name="O" class="cls-1" d="M38.619,30.976c0,4.721,3.127,7.553,8.161,7.553,5,0,8.237-2.9,8.237-7.621V21.8c0-4.721-3.127-7.553-8.161-7.553-5,0-8.237,2.9-8.237,7.621v9.1Zm2.822-9.037c0-3.406,1.983-5.429,5.377-5.429S52.2,18.534,52.2,21.939v8.9c0,3.406-1.983,5.429-5.377,5.429s-5.377-2.023-5.377-5.429v-8.9Z"/>
</svg>
