<svg id="название" xmlns="http://www.w3.org/2000/svg" width="281" height="72" viewBox="0 0 281 72">
  <metadata><?xpacket begin="﻿" id="W5M0MpCehiHzreSzNTczkc9d"?>
<x:xmpmeta xmlns:x="adobe:ns:meta/" x:xmptk="Adobe XMP Core 5.6-c142 79.160924, 2017/07/13-01:06:39        ">
   <rdf:RDF xmlns:rdf="http://www.w3.org/1999/02/22-rdf-syntax-ns#">
      <rdf:Description rdf:about=""/>
   </rdf:RDF>
</x:xmpmeta>
                                                                                                    
                                                                                                    
                                                                                                    
                                                                                                    
                                                                                                    
                                                                                                    
                                                                                                    
                                                                                                    
                                                                                                    
                                                                                                    
                                                                                                    
                                                                                                    
                                                                                                    
                                                                                                    
                                                                                                    
                                                                                                    
                                                                                                    
                                                                                                    
                                                                                                    
                                                                                                    
                           
<?xpacket end="w"?></metadata>
<defs>
    <style>
      .cls-1 {
        fill-rule: evenodd;
      }
    </style>
  </defs>
  <path id="c" class="cls-1" d="M71.232,31.721c0,4.749,3.077,7.711,7.612,7.711a7.505,7.505,0,0,0,5.385-1.948,6.71,6.71,0,0,0,2.065-5.033,1.267,1.267,0,0,0-1.336-1.38,1.286,1.286,0,0,0-1.336,1.177,4.459,4.459,0,0,1-4.7,4.586c-2.915,0-4.818-2.029-4.818-5.276V25.795c0-3.206,1.9-5.235,4.818-5.235a4.514,4.514,0,0,1,4.7,4.383,1.238,1.238,0,0,0,1.336,1.177,1.333,1.333,0,0,0,1.336-1.461,6.271,6.271,0,0,0-2.065-4.83,8.276,8.276,0,0,0-10.851.243,7.66,7.66,0,0,0-2.146,5.682v5.966Z"/>
  <path id="o" class="cls-1" d="M91.5,31.455c0,4.87,3.158,7.914,7.855,7.914a7.525,7.525,0,0,0,7.936-8.036v-5.52c0-4.911-3.158-7.955-7.855-7.955A7.526,7.526,0,0,0,91.5,25.9v5.56Zm2.875-5.52c0-3.369,1.984-5.438,5.021-5.438s5.02,2.07,5.02,5.438v5.357c0,3.369-1.984,5.479-5.02,5.479s-5.021-2.11-5.021-5.479V25.936Z"/>
  <path id="f" class="cls-1" d="M112.35,21.74V38.015a1.458,1.458,0,0,0,2.915,0V26.074h6.19a1.177,1.177,0,0,0,0-2.354h-6.19V19.681c0-2.395.334-5.377,3.608-6.564a9.17,9.17,0,0,1,2.471-.309,1.53,1.53,0,0,0,1.235-1.548c0-.609-0.076-0.726-0.926-0.929a5.776,5.776,0,0,0-3.4,0,9.228,9.228,0,0,0-5.906,9.106V19.386"/>
  <path id="f_копия" data-name="f копия" class="cls-1" d="M126.863,21.74V38.015a1.458,1.458,0,0,0,2.915,0V26.074h6.19a1.177,1.177,0,0,0,0-2.354h-6.19V19.681c0-2.395.334-5.377,3.609-6.564a9.164,9.164,0,0,1,2.47-.309,1.53,1.53,0,0,0,1.235-1.548c0-.609-0.076-0.726-0.926-0.929a5.775,5.775,0,0,0-3.4,0,9.229,9.229,0,0,0-5.906,9.106V19.386"/>
  <path id="e" class="cls-1" d="M141.168,31.094c0,4.87,3.158,7.914,7.855,7.914,3.685,0,6.04-1.931,7.214-5.462a4.364,4.364,0,0,0,0-1.857A1.179,1.179,0,0,0,155,30.451a1.6,1.6,0,0,0-1.235,1.238c-0.324,1.015-.128,2-0.9,3.1a4.558,4.558,0,0,1-3.806,1.623c-3.037,0-5.021-2.111-5.021-5.479V26.315h11.418c1.262,0,1.394-2.673,1.394-2.673-1.482-5.1-4.6-6.156-7.751-6.144a7.526,7.526,0,0,0-7.936,8.036v5.56Zm2.875-7.58c0.8-3.678,3.713-3.581,5.021-3.581,1.06,0,4.341.275,5.02,3.581v0.771H144.043V23.514Z"/>
  <path id="e_копия" data-name="e копия" class="cls-1" d="M162.475,31.094c0,4.87,3.158,7.914,7.855,7.914,3.684,0,6.04-1.931,7.214-5.462a4.38,4.38,0,0,0,0-1.857,1.18,1.18,0,0,0-1.235-1.238,1.6,1.6,0,0,0-1.235,1.238c-0.324,1.015-.128,2-0.9,3.1a4.556,4.556,0,0,1-3.806,1.623c-3.036,0-5.02-2.111-5.02-5.479V26.315h11.418c1.262,0,1.394-2.673,1.394-2.673-1.483-5.1-4.6-6.156-7.751-6.144a7.525,7.525,0,0,0-7.936,8.036v5.56Zm2.875-7.58c0.8-3.678,3.713-3.581,5.02-3.581,1.061,0,4.342.275,5.021,3.581v0.771H165.35V23.514Z"/>
  <path id="l" class="cls-1" d="M183.43,13.737V11.88s-0.308-1.671,1.216-1.671a1.448,1.448,0,0,1,1.525,1.672V33.237s-0.351,2.662.946,3.1,4.384-.544,4.323,1.238-1.174,1.782-2.162,1.782-3.725-.172-4.941-2.092-0.907-4.271-.907-5.572V13.737Z"/>
  <path id="a" class="cls-1" d="M202.658,17.89a12.509,12.509,0,0,0-5.425,1.177,1.583,1.583,0,0,0-1.134,1.38,1.128,1.128,0,0,0,1.174,1.177,2.8,2.8,0,0,0,1.013-.325,9.42,9.42,0,0,1,4.008-.771c5.71,0,5.2,5.59,5.2,5.59a6.342,6.342,0,0,0-5.25-2.167,7,7,0,0,0-4.94,2.167A9.422,9.422,0,0,0,194.836,32a7.271,7.271,0,0,0,7.175,7.4,7.042,7.042,0,0,0,5.951-2.638V37.9a1.256,1.256,0,1,0,2.511,0V26.088C210.473,20.893,207.476,17.89,202.658,17.89Zm0.041,19.2c-3.882,0-5.454-2.22-5.392-5.707a5.575,5.575,0,0,1,5.249-5.262c3.037,0,5.126,1.96,4.941,6.5A4.467,4.467,0,0,1,202.7,37.087Z"/>
  <path id="v" class="cls-1" d="M214.059,19.232a3.13,3.13,0,0,0,.245.942l6.088,17.284a2,2,0,0,0,1.879,1.6,1.955,1.955,0,0,0,1.839-1.6l6.17-17.489a1.66,1.66,0,0,0,.163-0.778,1.342,1.342,0,0,0-1.389-1.433,1.5,1.5,0,0,0-1.43,1.188l-5.271,15.81-5.271-15.728a1.574,1.574,0,0,0-1.512-1.27A1.451,1.451,0,0,0,214.059,19.232Z"/>
  <path id="k" class="cls-1" d="M235.22,38.046c-0.162,1.907,3.077,1.907,2.874,0l0.282-7.285,4.014-3.714L248.566,38.5a1.535,1.535,0,0,0,1.235.929,1.219,1.219,0,0,0,1.3-1.382,2.023,2.023,0,0,0-.446-1.136l-6.1-11.72,5.573-5.24a1.537,1.537,0,0,0,.486-1.136,1.316,1.316,0,0,0-1.3-1.339,1.731,1.731,0,0,0-1.336.812l-9.885,9.533V12.112c0.2-1.826-3.036-1.826-2.874,0V38.046Z"/>
  <path id="a_копия" data-name="a копия" class="cls-1" d="M262.873,17.89a12.517,12.517,0,0,0-5.426,1.177,1.582,1.582,0,0,0-1.133,1.38,1.128,1.128,0,0,0,1.174,1.177A2.8,2.8,0,0,0,258.5,21.3a9.426,9.426,0,0,1,4.008-.771c5.711,0,5.2,5.59,5.2,5.59a6.339,6.339,0,0,0-5.249-2.167,7,7,0,0,0-4.941,2.167A9.421,9.421,0,0,0,255.051,32a7.271,7.271,0,0,0,7.174,7.4,7.042,7.042,0,0,0,5.952-2.638V37.9a1.255,1.255,0,1,0,2.51,0V26.088C270.687,20.893,267.691,17.89,262.873,17.89Zm0.04,19.2c-3.882,0-5.453-2.22-5.392-5.707a5.575,5.575,0,0,1,5.25-5.262c3.036,0,5.126,1.96,4.94,6.5A4.467,4.467,0,0,1,262.913,37.087Z"/>
  <path id="интернет-магазин" class="cls-1" d="M107.041,52.253q0.4-.649.747-1.246t0.585-1.071h0.034q-0.042.988-.043,2.121V57.42h1.324V47.641h-1.161l-3.212,5.168q-0.4.649-.743,1.246t-0.58,1.071h-0.034Q104,54.445,104,53V47.641h-1.324V57.42h1.162Zm11.948,5.168V47.641h-1.324v4.035h-4.091V47.641H112.25V57.42h1.324V53.046h4.091V57.42h1.324Zm4.466,0h1.324V49.062h2.758V47.641H120.7v1.421h2.758V57.42Zm9.765-8.456a1.815,1.815,0,0,1,.6.582,2.839,2.839,0,0,1,.367.87,4.388,4.388,0,0,1,.126,1.076h-4.151a4,4,0,0,1,.225-1.065,3.081,3.081,0,0,1,.476-0.87,2.269,2.269,0,0,1,.687-0.587,1.739,1.739,0,0,1,.852-0.216A1.574,1.574,0,0,1,133.22,48.964Zm-1.3,7.139a2.43,2.43,0,0,1-.953-0.592,2.825,2.825,0,0,1-.64-1.06,4.717,4.717,0,0,1-.235-1.59h5.6q0.009-.309.009-0.4V52.253a8.6,8.6,0,0,0-.251-2.223,4.534,4.534,0,0,0-.686-1.513,2.664,2.664,0,0,0-1.027-.859,3,3,0,0,0-1.273-.273,3.089,3.089,0,0,0-1.389.329,3.408,3.408,0,0,0-1.176.988,5.17,5.17,0,0,0-.818,1.642,7.846,7.846,0,0,0-.306,2.321,7.48,7.48,0,0,0,.316,2.321,4.128,4.128,0,0,0,.876,1.56,3.259,3.259,0,0,0,1.323.865,4.915,4.915,0,0,0,1.635.268,6.058,6.058,0,0,0,1.375-.149,3.811,3.811,0,0,0,1.076-.407V55.794a6.232,6.232,0,0,1-1.08.365,5.2,5.2,0,0,1-1.2.129A3.642,3.642,0,0,1,131.919,56.1Zm11.6-1.75a3.513,3.513,0,0,1-.589,1.189,1.965,1.965,0,0,1-.777.607,2.139,2.139,0,0,1-.8.17,2.338,2.338,0,0,1-1.155-.3,3.322,3.322,0,0,1-.958-0.813V50.091a4.442,4.442,0,0,1,.318-0.422,2.808,2.808,0,0,1,.472-0.443,2.648,2.648,0,0,1,.614-0.34,2.039,2.039,0,0,1,.752-0.134,1.966,1.966,0,0,1,1.014.257,2.168,2.168,0,0,1,.738.736A3.626,3.626,0,0,1,143.6,50.9a7.138,7.138,0,0,1,.151,1.534A6.64,6.64,0,0,1,143.524,54.353Zm1.32-4.246a4.67,4.67,0,0,0-.781-1.559,2.958,2.958,0,0,0-1.123-.885,3.263,3.263,0,0,0-1.32-.278,2.424,2.424,0,0,0-.9.165,3.042,3.042,0,0,0-.708.386,3.267,3.267,0,0,0-.47.417,2.087,2.087,0,0,0-.286.4h-0.026l-0.282-1.112h-1V62.207h1.3V56.515h0.025a3.044,3.044,0,0,0,.986.87,2.711,2.711,0,0,0,1.3.293,3.048,3.048,0,0,0,1.569-.458,3.677,3.677,0,0,0,.764-0.638,3.777,3.777,0,0,0,.643-0.983,6.4,6.4,0,0,0,.442-1.374,8.788,8.788,0,0,0,.167-1.806A7.87,7.87,0,0,0,144.844,50.107Zm9.126,7.314V47.641h-1.324v4.035h-4.091V47.641h-1.324V57.42h1.324V53.046h4.091V57.42h1.324Zm6.537-8.456a1.822,1.822,0,0,1,.6.582,2.84,2.84,0,0,1,.368.87,4.437,4.437,0,0,1,.125,1.076h-4.15a3.964,3.964,0,0,1,.225-1.065,3.079,3.079,0,0,1,.475-0.87,2.261,2.261,0,0,1,.688-0.587,1.738,1.738,0,0,1,.851-0.216A1.58,1.58,0,0,1,160.507,48.964Zm-1.3,7.139a2.426,2.426,0,0,1-.952-0.592,2.827,2.827,0,0,1-.641-1.06,4.742,4.742,0,0,1-.235-1.59h5.6c0.005-.206.008-0.338,0.008-0.4V52.253a8.561,8.561,0,0,0-.251-2.223,4.514,4.514,0,0,0-.686-1.513,2.661,2.661,0,0,0-1.026-.859,3.011,3.011,0,0,0-1.274-.273,3.089,3.089,0,0,0-1.389.329,3.4,3.4,0,0,0-1.175.988,5.149,5.149,0,0,0-.818,1.642,7.811,7.811,0,0,0-.307,2.321,7.478,7.478,0,0,0,.317,2.321,4.127,4.127,0,0,0,.875,1.56,3.272,3.272,0,0,0,1.323.865,4.921,4.921,0,0,0,1.636.268,6.064,6.064,0,0,0,1.375-.149,3.823,3.823,0,0,0,1.076-.407V55.794a6.289,6.289,0,0,1-1.08.365,5.2,5.2,0,0,1-1.2.129A3.644,3.644,0,0,1,159.205,56.1Zm7.422,1.318h1.323V49.062h2.759V47.641h-6.841v1.421h2.759V57.42Zm4.808-4.385H175.2V51.543h-3.766v1.493Zm10.74,4.385,1.546-4.684q0.654-1.976,1.011-3.15h0.077q-0.06,1.431-.06,3.119V57.42h1.324V47.641H184.2l-1.465,4.447q-0.5,1.534-.916,2.944h-0.06q-0.395-1.369-.917-2.944l-1.456-4.447h-1.876V57.42h1.324V52.706q0-1.894-.06-3.119h0.077q0.517,1.678,1.01,3.15L181.4,57.42h0.771Zm11.328,0h1.11V50.894a6.3,6.3,0,0,0-.055-0.87,3.207,3.207,0,0,0-.184-0.726,2.944,2.944,0,0,0-1.123-1.39,3.537,3.537,0,0,0-2.011-.525,5.7,5.7,0,0,0-.683.041,5.252,5.252,0,0,0-.649.118,4.853,4.853,0,0,0-.585.185,3.134,3.134,0,0,0-.483.232V49.3a6.415,6.415,0,0,1,1.08-.386,4.659,4.659,0,0,1,1.158-.139,2.344,2.344,0,0,1,1.315.324,1.925,1.925,0,0,1,.709.818,2.129,2.129,0,0,1,.145.545,5.313,5.313,0,0,1,.043.71v0.679h-0.035a5.282,5.282,0,0,0-.956-0.309,5.643,5.643,0,0,0-1.17-.134,3.3,3.3,0,0,0-1.217.216,2.666,2.666,0,0,0-.944.618,2.8,2.8,0,0,0-.611.978,3.684,3.684,0,0,0-.217,1.307,4.171,4.171,0,0,0,.2,1.328,2.891,2.891,0,0,0,.551.993,2.326,2.326,0,0,0,.845.618,2.714,2.714,0,0,0,1.081.211,2.9,2.9,0,0,0,.82-0.113,3.174,3.174,0,0,0,.709-0.3,2.954,2.954,0,0,0,.572-0.432,3.01,3.01,0,0,0,.41-0.489h0.034Zm-0.213-2.337Q193.2,55.2,193,55.4a3.7,3.7,0,0,1-.484.412,3.1,3.1,0,0,1-.651.355,2.071,2.071,0,0,1-.79.149,1.693,1.693,0,0,1-.608-0.108,1.293,1.293,0,0,1-.493-0.329,1.564,1.564,0,0,1-.328-0.561,2.4,2.4,0,0,1-.119-0.793A1.709,1.709,0,0,1,190,53.2a1.89,1.89,0,0,1,1.318-.432,5.439,5.439,0,0,1,1.1.123,8.834,8.834,0,0,1,.868.237v1.956Zm9.462-7.443h-5.577V57.42h1.384V49.093h4.193V47.641Zm6.542,9.779h1.11V50.894a6.3,6.3,0,0,0-.055-0.87,3.207,3.207,0,0,0-.184-0.726,2.944,2.944,0,0,0-1.123-1.39,3.537,3.537,0,0,0-2.011-.525,5.7,5.7,0,0,0-.683.041,5.252,5.252,0,0,0-.649.118,4.91,4.91,0,0,0-.585.185,3.18,3.18,0,0,0-.483.232V49.3a6.415,6.415,0,0,1,1.08-.386,4.659,4.659,0,0,1,1.158-.139,2.344,2.344,0,0,1,1.315.324,1.925,1.925,0,0,1,.709.818,2.129,2.129,0,0,1,.145.545,5.313,5.313,0,0,1,.043.71v0.679h-0.035a5.282,5.282,0,0,0-.956-0.309,5.643,5.643,0,0,0-1.17-.134,3.3,3.3,0,0,0-1.217.216,2.666,2.666,0,0,0-.944.618,2.778,2.778,0,0,0-.61.978,3.662,3.662,0,0,0-.218,1.307,4.171,4.171,0,0,0,.2,1.328,2.891,2.891,0,0,0,.551.993,2.321,2.321,0,0,0,.846.618,2.706,2.706,0,0,0,1.08.211,2.892,2.892,0,0,0,.82-0.113,3.174,3.174,0,0,0,.709-0.3,3.006,3.006,0,0,0,.982-0.921h0.034Zm-0.213-2.337q-0.094.113-.294,0.319a3.634,3.634,0,0,1-.484.412,3.1,3.1,0,0,1-.651.355,2.067,2.067,0,0,1-.79.149,1.7,1.7,0,0,1-.608-0.108,1.293,1.293,0,0,1-.493-0.329,1.564,1.564,0,0,1-.328-0.561,2.4,2.4,0,0,1-.119-0.793,1.709,1.709,0,0,1,.476-1.328,1.89,1.89,0,0,1,1.318-.432,5.439,5.439,0,0,1,1.1.123,8.834,8.834,0,0,1,.868.237v1.956Zm3.484-5.826a10.659,10.659,0,0,1,1.2-.376,5.458,5.458,0,0,1,1.179-.139,2.589,2.589,0,0,1,.828.118,1.568,1.568,0,0,1,.577.329,1.332,1.332,0,0,1,.337.494,1.692,1.692,0,0,1,.111.623,1.889,1.889,0,0,1-.077.551,1.018,1.018,0,0,1-.256.432,1.24,1.24,0,0,1-.465.283,2.193,2.193,0,0,1-.731.1h-1.81v1.369h1.768a2.027,2.027,0,0,1,1.362.391,1.447,1.447,0,0,1,.448,1.153,2.252,2.252,0,0,1-.1.69,1.219,1.219,0,0,1-.368.551,1.831,1.831,0,0,1-.708.36,4.131,4.131,0,0,1-1.128.129,5.724,5.724,0,0,1-1.238-.144,6.46,6.46,0,0,1-1.085-.36v1.307a4.574,4.574,0,0,0,1.2.427,6.568,6.568,0,0,0,1.32.129,4.639,4.639,0,0,0,1.622-.247,2.94,2.94,0,0,0,1.072-.664,2.542,2.542,0,0,0,.607-0.973,3.568,3.568,0,0,0,.192-1.174,3.1,3.1,0,0,0-.128-0.937A2.236,2.236,0,0,0,217.95,53a1.7,1.7,0,0,0-.508-0.448,1.823,1.823,0,0,0-.615-0.216V52.294a2.136,2.136,0,0,0,.5-0.268,1.8,1.8,0,0,0,.435-0.443,2.307,2.307,0,0,0,.3-0.633,2.821,2.821,0,0,0,.116-0.849,3.081,3.081,0,0,0-.193-1.112,2.252,2.252,0,0,0-.572-0.859,2.616,2.616,0,0,0-.939-0.551,4.1,4.1,0,0,0-1.345-.2,6.49,6.49,0,0,0-1.375.165,6.074,6.074,0,0,0-1.2.4v1.307Zm12.273,3q0.4-.649.747-1.246t0.585-1.071H226.2q-0.043.988-.043,2.121V57.42h1.324V47.641h-1.161l-3.212,5.168q-0.4.649-.743,1.246t-0.58,1.071h-0.035q0.043-.679.043-2.12V47.641h-1.324V57.42h1.162Zm11.948,5.168V47.641h-1.324v4.035h-4.091V47.641h-1.324V57.42h1.324V53.046h4.091V57.42h1.324Z"/>
  <path id="Эллипс_1" data-name="Эллипс 1" class="cls-1" d="M27.938,65.893a29.48,29.48,0,1,1,8.232.38c-0.91.085-4.238-1.353-4.238-2.836s0.246-6.176.246-6.176,0.041-.741-1.228-0.741a33.693,33.693,0,0,1-4.913-.247,2.1,2.1,0,0,1-1.228-.741,2.452,2.452,0,0,1,2.456-1.482h4.667s0.164,0.412.246-1.482,0-5.187,0-5.187A2.792,2.792,0,0,0,30.7,45.652a7.371,7.371,0,0,0-4.176-1.482c-1.556,0-1.8-2.964-.246-2.717a13.5,13.5,0,0,1,4.667,1.729c0.9,0.659,2.374,1.647,2.456,2.223a5.18,5.18,0,0,1,1.965-1.976c1.474-.906,3.521-1.976,4.667-1.729s1.556,0.741.983,1.482-0.819.659-2.211,0.988a5.677,5.677,0,0,0-2.7,1.482,2.705,2.705,0,0,0-1.228,2.223c-0.082,1.07-.246,4.776-0.246,5.435s-0.082.988,2.211,0.988,4.5,0.165,5.158,1.235a2.127,2.127,0,0,1-1.965.988,15.735,15.735,0,0,0-4.176.247c-0.819.329-1.228,0.165-1.228,1.235a35.746,35.746,0,0,0,0,4.2c0.164,0.659-.082,1.07,1.474,1.482s3.848-.165,5.158-0.494a30.442,30.442,0,0,0,5.9-2.964,31.008,31.008,0,0,0,4.667-3.458A30.494,30.494,0,0,0,56,51.827,29.286,29.286,0,0,0,59.2,45.4a32.688,32.688,0,0,0,.983-7.164,23.2,23.2,0,0,0-.246-6.67,35.76,35.76,0,0,0-1.965-5.929,20.542,20.542,0,0,0-3.193-5.434A31.159,31.159,0,0,0,51.337,16.5a51.647,51.647,0,0,0-4.421-3.211,27.418,27.418,0,0,0-5.4-2.223A29.011,29.011,0,0,0,33.16,9.586a28.894,28.894,0,0,0-7.615,1.235,21.9,21.9,0,0,0-5.9,2.717,42.814,42.814,0,0,0-5.4,4.446c-1.474,1.565-3.521,3.87-4.176,5.435s-2.293,4.776-2.7,6.917a28.97,28.97,0,0,0-.737,7.658,42.448,42.448,0,0,0,1.719,7.9,23.527,23.527,0,0,0,3.193,6.423,30.04,30.04,0,0,0,4.913,5.188A31.769,31.769,0,0,0,21.37,60.72a23.634,23.634,0,0,0,4.913,1.729,5.4,5.4,0,0,1,2.211,2.47S29.71,66.227,27.938,65.893Z"/>
  <path id="O-2" data-name="O" class="cls-1" d="M26.231,32.579c0,4.233,2.784,6.773,7.264,6.773,4.447,0,7.332-2.6,7.332-6.834V24.354c0-4.233-2.784-6.773-7.264-6.773-4.447,0-7.332,2.6-7.332,6.834v8.164Zm2.512-8.1c0-3.054,1.765-4.868,4.786-4.868s4.786,1.814,4.786,4.868v7.983c0,3.054-1.765,4.868-4.786,4.868s-4.786-1.814-4.786-4.868V24.475Z"/>
</svg>
